<?xml version="1.0" encoding="UTF-8" standalone="no"?>
<!-- Created with Inkscape (http://www.inkscape.org/) -->

<svg
   width="210mm"
   height="297mm"
   viewBox="0 0 210 297"
   version="1.1"
   id="svg5"
   sodipodi:docname="logo.svg"
   inkscape:version="1.2.2 (b0a8486541, 2022-12-01)"
   xmlns:inkscape="http://www.inkscape.org/namespaces/inkscape"
   xmlns:sodipodi="http://sodipodi.sourceforge.net/DTD/sodipodi-0.dtd"
   xmlns="http://www.w3.org/2000/svg"
   xmlns:svg="http://www.w3.org/2000/svg">
  <sodipodi:namedview
     id="namedview7"
     pagecolor="#505050"
     bordercolor="#eeeeee"
     borderopacity="1"
     inkscape:showpageshadow="0"
     inkscape:pageopacity="0"
     inkscape:pagecheckerboard="0"
     inkscape:deskcolor="#505050"
     inkscape:document-units="mm"
     showgrid="false"
     inkscape:zoom="0.7786055"
     inkscape:cx="141.27822"
     inkscape:cy="450.80596"
     inkscape:window-width="1906"
     inkscape:window-height="1040"
     inkscape:window-x="5"
     inkscape:window-y="31"
     inkscape:window-maximized="1"
     inkscape:current-layer="layer1"
     inkscape:lockguides="true" />
  <defs
     id="defs2" />
  <g
     inkscape:label="manual"
     inkscape:groupmode="layer"
     id="layer1"
     transform="matrix(0.72306984,0,0,0.72306984,29.668196,67.168395)">
    <g
       id="g1308"
       transform="translate(2.0280974,-29.225426)">
      <path
         style="fill:#f5ff00;fill-opacity:1;stroke-width:0.309913"
         d="m 84.094369,97.113115 c -2.178969,-0.89894 -4.198063,-0.59029 -5.916675,-2.30231 -1.566808,-1.5608 -4.547948,-6.86241 -4.985022,-8.97609 -0.299118,-1.44653 -0.33202,-2.61101 -0.803358,-4.11863 -0.275762,-0.88206 -1.075785,-1.2016 -1.300173,-2.09217 -0.06519,-0.25867 0.06454,-0.54143 0,-0.80024 -0.210086,-0.84254 -0.807994,-1.52764 -1.257419,-2.18537 -1.353822,-1.98129 -0.01987,-0.12319 -0.398038,-1.25769 -0.518759,-1.55628 -1.441541,-3.57753 -2.395697,-4.928022 -0.251172,-0.355521 -0.648791,-0.601841 -0.860768,-0.982021 -0.21692,-0.389067 -0.17281,-0.891366 -0.398033,-1.275677 -0.783425,-1.336783 -2.413056,-2.501515 -3.372518,-3.758521 -0.81019,-1.061428 -0.610464,-1.205028 -1.592145,-1.991236 -3.759369,-3.010769 -8.283143,-5.136969 -12.748417,-6.927388 -1.409015,-0.564963 -2.9144,-1.351351 -4.40004,-1.693315 -0.39371,-0.09062 -1.267178,0.0819 -1.676763,0 -2.838909,-0.567781 -8.659255,-0.796758 -11.248469,0.499623 -4.006898,2.006197 -6.642639,6.145545 -8.501698,10.132097 -0.838678,1.798445 -0.746183,3.865574 -1.291286,5.739751 -1.34619,4.628509 -1.252536,8.464919 -1.252536,13.386739 0,1.50953 -0.185886,3.2893 0,4.77643 0.154767,1.2381 0.54276,3.24654 0.796075,4.37839 0.272789,1.2189 0.997854,2.37639 1.201397,3.60903 0.257289,1.55814 0.378635,3.14646 1.201686,4.595625 1.244006,2.19037 2.431661,4.37012 3.795745,6.51037 0.779171,1.22252 0.780204,2.79579 1.599457,4.0207 1.931504,2.88789 3.985692,5.67312 6.071429,8.44987 0.728431,0.96976 1.759446,1.77151 2.578295,2.66423 0.344518,0.3756 0.451469,0.93489 0.81077,1.29637 0.449707,0.45245 1.262117,0.53406 1.592143,1.19411 0.427567,0.85513 1.521569,1.48247 1.966077,2.37142 0.244592,0.48915 -0.37726,0.34429 0.287936,0.7528 0.08902,0.0547 0.257324,-0.0881 0.31342,0 0.343397,0.53956 -0.374296,0.34562 0.521349,1.26062 0.198853,0.20314 -0.01416,0.79035 0.186461,0.99844 0.08426,0.0874 0.278409,-0.0861 0.364118,0 0.08594,0.0862 -0.07065,0.26596 0,0.36508 0.185163,0.25969 0.701763,0.44866 0.889535,0.71413 0.01223,0.0173 -0.01268,0.57143 0,0.58187 0.205129,0.1687 0.632689,0.3455 0.744153,0.57851 0.150013,0.31361 0.353327,1.5916 0.510033,1.7539 0.75711,0.78414 -0.136517,-1.26209 0.702905,0.3419 0.247976,0.47386 0.798724,1.70511 1.160068,2.15042 0.200944,0.24765 0.710868,0.3863 0.934768,0.62348 0.467427,0.49514 0.250832,1.36641 0.580704,1.79371 0.105118,0.13615 0.361918,0.0977 0.455854,0.24184 0.09692,0.14867 0.05014,5.37518 0,5.62588 -0.0368,0.18399 -0.31412,0.23022 -0.398034,0.39804 -0.212286,0.42455 0.212286,1.16759 0,1.59214 -0.08391,0.16782 -0.338702,0.22003 -0.398034,0.39805 -0.125873,0.37759 0.125867,0.81648 0,1.1941 -0.426454,1.27933 -0.789484,2.5793 -1.19411,3.87545 -0.674617,2.16102 -2.549742,3.86503 -3.678818,5.6886 -5.082766,8.20925 -10.948037,14.38819 -20.578942,17.13989 -1.787366,0.51068 -4.145033,1.27673 -5.920076,0.38921 -2.008986,-1.0045 -2.79213,-3.27959 -3.691549,-5.17549 -0.650714,-1.37169 -1.960157,-3.09681 -2.410397,-4.46413 -0.7389366,-2.24405 -1.9479266,-9.04587 -1.2962646,-11.65253 0.2886,-1.1544 0.310539,-0.4658 0.7960736,-1.1941 0.35704,-0.53556 0.753082,-1.54639 1.201443,-1.99749 0.420715,-0.42329 1.122679,-0.44534 1.599844,-0.80379 2.268418,-1.70408 5.737727,-2.86646 8.590639,-2.86646 0.603461,0 5.12279,0.24997 5.49255,0 0.250586,-0.1694 0.06019,-3.22539 0,-3.46679 -0.203664,-0.81688 -0.614282,-1.57487 -0.796071,-2.39686 -0.08657,-0.39147 0.07998,-0.80991 0,-1.20276 -0.17532,-0.8612 -0.99695,-1.60104 -1.303529,-2.39936 -0.491671,-1.28032 -0.754642,-3.49195 -1.797381,-4.53472 -0.211697,-0.2117 -0.590422,-0.19242 -0.80212,-0.40412 -2.033949,-2.03398 1.668746,0.55503 -1.194107,-1.59213 -2.156714,-1.61755 -4.526417,-2.08565 -7.241098,-1.68712 -1.07304,0.15752 -2.037197,0.96103 -2.824709,1.611 -1.068877,0.8822 -2.3325996,1.61976 -3.1698796,2.76789 -0.797721,0.59055 -0.699533,1.65774 -1.20137,2.39746 -0.214373,0.31596 -0.612529,0.48374 -0.808607,0.81139 -1.51803,2.53664 -2.489141,6.59432 -2.79354,9.57061 -0.08212,0.80281 0.07302,1.72933 0,2.5369 -0.317628,3.51303 -0.747324,6.98533 -1.205259,10.42555 -0.17907,1.34526 -0.635912,2.58127 -0.8983261,3.88647 -0.36575885,1.81924 -0.21339965,4.53996 0,6.36858 0.2486701,2.13081 1.7875481,6.44555 2.9014781,8.30211 0.885072,0.88507 0.708802,0.58448 1.283024,1.59215 0.757064,1.3285 1.191277,2.82018 2.156034,4.01183 0.994047,1.22784 1.893189,2.58755 3.0393006,3.74422 0.104633,1.46223 1.582272,1.06064 2.253649,1.72799 0.481875,0.47896 0.188298,0.89297 0.79607,1.19409 1.875209,0.92909 3.787461,2.48556 5.69662,3.60779 1.309142,0.76952 2.678609,1.72346 4.008129,2.38822 0.03202,0.0161 0.743182,-0.0153 0.78283,0 0.482796,0.18853 0.704315,0.46172 1.130262,0.69424 0.39845,0.21754 4.781571,0.14259 5.338842,0 0.288778,-0.074 0.507188,-0.33388 0.796069,-0.40736 1.247118,-0.31723 2.836806,-0.21964 3.989664,-0.79606 1.327777,-0.6639 3.089366,-2.72928 3.654863,-3.87053 0.249927,-0.50437 0.881863,-0.72574 1.194106,-1.19412 0.213478,-0.3202 0.528938,-1.3206 0.786476,-1.57814 0.09278,-0.0928 0.301114,0.093 0.39364,0 0.451184,-0.45369 0.841572,-1.46811 1.201177,-2.00434 0.385289,-0.57451 1.253241,-0.94407 1.56413,-1.55667 0.143212,-0.2822 0.09975,-0.5264 0.305963,-0.72306 0.08684,-0.0829 0.278996,0.0884 0.360016,0 0.08852,-0.0968 -0.09068,-0.29865 0,-0.39336 0.08681,-0.0907 0.279984,0.0801 0.376606,0 0.103888,-0.0862 0.138612,-0.55327 0.241192,-0.63691 0.319618,-0.26061 1.178891,-0.56447 1.552668,-0.78862 0.0849,-0.051 0.143876,-0.47832 0.20718,-0.53032 0.279028,-0.22923 0.86214,-0.5339 1.130894,-0.76344 0.326821,-0.27914 0.249712,-1.06197 0.574339,-1.35651 0.180934,-0.16418 0.514409,0.10919 0.732931,0 1.913845,-0.95688 3.769716,-2.13542 5.805094,-2.97272 1.382044,-0.56852 0.381949,-0.30694 1.886661,-1.48746 1.211056,-0.95013 2.650205,-1.56782 3.905412,-2.49384 0.269338,-0.1987 1.353367,-1.40776 1.614102,-1.60678 0.547656,-0.418 1.600738,-0.80008 2.084394,-1.28372 0.957414,-0.95743 -0.09891,-0.59994 0.803555,-1.2016 0.812412,-0.5416 1.583779,-1.05668 2.395989,-1.59992 1.317397,-0.88111 2.169647,-2.56881 3.453514,-3.45506 0.424754,-0.2932 1.021855,-0.27499 1.282392,-0.79607 0.495173,-0.99034 1.463867,-1.79525 1.970113,-2.8069 0.150509,-0.30076 1.043299,-3.27239 1.056551,-3.28248 0.09893,-0.0754 0.284346,0.0873 0.373015,0 0.547697,-0.5384 0.632693,-8.69439 0.632693,-9.97876 0,-1.21662 0.293494,-2.80638 0,-3.98037 -0.564611,-2.25844 -1.459764,-6.08295 -2.492583,-8.12577 -0.153026,-0.30269 -0.480225,-0.49727 -0.621516,-0.80558 -0.93663,-2.04384 -1.454063,-4.31423 -2.492996,-6.33935 -0.931677,-1.81606 -2.323827,-3.19513 -3.315938,-4.93218 -0.852452,-1.49252 -1.576644,-3.15581 -2.672652,-4.5027 -1.206557,-1.48275 -2.072292,-1.99548 -3.421157,-3.53852 -1.009597,-1.15494 -1.807073,-2.35658 -2.917219,-3.46677 -1.470671,-1.47077 -3.359938,-2.56362 -4.986913,-3.82465 -0.840722,-0.65162 -1.468861,-1.55101 -2.312273,-2.19914 -2.077261,-1.5963 -4.326251,-3.05562 -6.350959,-4.74346 -0.615302,-0.51293 -1.076795,-1.19514 -1.699305,-1.699305 -0.252631,-0.2046 -0.622949,-0.21315 -0.890354,-0.39802 -3.737101,-2.58374 -6.448521,-6.05271 -7.178006,-10.42962 -0.362068,-2.17242 -0.887092,-4.54744 0,-6.7072 0.849214,-2.06755 5.224041,-6.16068 7.326466,-7.00166 1.028858,-0.41153 2.200706,-0.4682 3.184287,-0.79607 0.178006,-0.0593 0.216003,-0.35253 0.398036,-0.39803 0.756742,-0.18919 1.981112,0 2.78625,0 0.548714,0 1.466039,-0.17581 1.99018,0 2.928823,0.98246 -0.644437,-0.12131 1.197923,0.79988 0.234552,0.11729 1.016658,0.22058 1.179335,0.38326 0.966748,0.96675 -0.118362,0.58448 0.796068,1.19409 0.246854,0.16459 0.586291,0.18827 0.796075,0.39805 0.09382,0.0939 -0.05933,0.27937 0,0.39804 0.401055,0.8021 0.96698,1.46965 1.198529,2.38822 0.312171,1.2384 -0.192726,2.72195 0,3.98477 0.07387,0.48404 0.324162,0.92995 0.398034,1.41399 0.138685,0.90873 -0.129348,1.8761 0,2.78624 0.118109,0.83103 0.169036,2.66962 0.398038,3.59679 0.1032,0.41788 0.408231,0.77181 0.491543,1.19411 0.167795,0.85054 -0.154424,1.64266 0,2.4916 0.09967,0.54797 0.337884,1.06143 0.506825,1.59214 0,0.56701 -0.08926,1.14109 0,1.70102 0.0345,0.21646 0.687427,1.862665 0.796072,1.985205 0.07704,0.0869 0.270675,-0.0863 0.34845,0 0.03875,0.0429 1.657907,3.08368 1.992561,3.52988 1.270534,1.69406 5.201147,3.59727 7.223924,4.40174 1.212744,0.48231 10.041584,2.57416 11.758086,1.69386 0.449523,-0.23053 0.692024,-0.55316 1.117536,-0.77784 0.391393,-0.20667 1.186997,-0.0102 1.540542,-0.33604 0.310368,-0.28527 1.695666,-4.07595 1.791305,-4.54739 0.07914,-0.39009 -0.07914,-0.80402 0,-1.19411 0.733938,-3.617555 2.430526,-1.37537 -0.519483,-6.219135 z"
         id="path1295"
         inkscape:label="S+" />
      <path
         style="fill:#f5ff00;fill-opacity:1;stroke-width:0.30571"
         d="m 143.15801,164.01818 c -1.24103,-0.40957 -2.67084,-0.38007 -3.85803,-0.77581 -0.0118,-0.003 -0.76413,-0.77186 -0.77952,-0.77952 -0.37046,-0.18454 -0.80773,-0.20755 -1.17791,-0.39264 -1.63407,-0.81703 0.41973,0.0272 -0.39265,-0.78527 -0.0925,-0.0925 -0.27362,0.0544 -0.39264,0 -0.58699,-0.26845 -2.6498,-2.24718 -3.08076,-2.87339 -0.17848,-0.25936 -0.58311,-1.46634 -0.78527,-1.66848 -0.0895,-0.0896 -0.29037,0.0895 -0.37999,0 -0.0389,-0.0389 0.0305,-0.59799 0,-0.67719 -0.21113,-0.54734 -0.53649,-1.09575 -0.68572,-1.67839 -0.15411,-0.6017 0.19604,-1.37508 0,-1.9632 -0.7494,-2.24819 -0.55836,-5.23614 0.008,-7.46768 0.0965,-0.38059 -0.12417,-0.80542 0,-1.17791 0.50199,-1.50599 0.88835,-3.06957 1.56748,-4.41371 0.0707,-0.13989 -0.0702,-0.6425 0,-0.78307 0.72234,-1.44472 1.61162,-2.84794 2.29639,-4.29191 0.3336,-0.70346 1.29955,-1.23146 1.54088,-1.9537 0.0826,-0.24736 -0.11631,-0.54897 0,-0.78238 0.42328,-0.8493 1.52017,-1.49532 1.95812,-2.39336 0.0385,-0.0789 -0.0374,-0.68971 0,-0.77386 0.14612,-0.32894 0.62293,-0.44821 0.73633,-0.7898 0.0825,-0.24843 -0.0827,-0.53696 0,-0.78529 0.0586,-0.17559 0.26176,-0.26175 0.39265,-0.39263 0.13087,-0.26176 0.30009,-0.50764 0.39264,-0.78528 0.69409,-2.08228 1.52611,-3.70066 2.53699,-5.70814 0.78666,-1.56223 1.97355,-4.04605 2.3725,-5.70002 0.0614,-0.25446 -0.0774,-0.53523 0,-0.78527 0.0614,-0.19812 0.26177,-0.3218 0.39264,-0.4827 0.13088,-0.29098 0.31913,-0.56246 0.39265,-0.87294 0.0603,-0.25471 -0.0839,-0.53733 0,-0.78527 0.33738,-0.99718 1.42079,-2.1204 1.75478,-3.15 0.0993,-0.30615 -0.0704,-0.65152 0,-0.96558 0.2163,-0.96451 0.97474,-1.73261 1.17792,-2.74847 0.59537,-2.97685 1.35515,-6.001294 1.96721,-9.034984 0.008,-0.0395 0.78396,-2.31623 0.7896,-2.36012 0.0797,-0.62066 -0.0883,-1.25778 0,-1.87728 0.33334,-2.33947 1.35743,-4.69552 1.68821,-7.03157 0.21906,-1.547 0.0939,-3.23758 0.404,-4.766055 0.24177,-1.191709 0.39973,-1.184037 0.39973,-2.276031 0,-1.755574 0.36402,-3.800875 0.79476,-5.506442 0.24597,-0.973931 -0.16399,-2.151035 0,-3.141096 0.0684,-0.412873 0.31115,-0.782036 0.39264,-1.192529 0.40676,-2.048906 0,-4.578775 0,-6.674844 0,-4.842532 0,-9.685066 0,-14.527598 0,-1.962853 0,-3.925706 0,-5.888561 0,-0.21614 -0.16429,-0.507976 0,-0.648413 0.0962,-0.08228 0.28827,0.08741 0.37989,0 0.10572,-0.1008 0.0653,-0.476199 0.20778,-0.551981 0.007,-0.0039 0.71192,0.004 0.71673,0 0.0767,-0.06373 -0.0794,-0.238799 0,-0.299271 0.20327,-0.154928 0.57867,0.173065 0.76673,0 0.0845,-0.0777 -0.0826,-0.264596 0,-0.344252 0.07,-0.06749 0.70476,0 0.83738,0 0.87368,0 3.45192,-0.459919 4.10994,0 0.75711,0.529172 1.1643,0.623832 1.99363,1.088945 0.19921,0.11172 0.54285,-0.178617 0.6852,0 0.0773,0.09696 -0.0862,0.282896 0,0.371979 0.14188,0.146542 0.49762,-0.168944 0.61191,0 0.0696,0.102753 -0.089,0.285689 0,0.372171 0.0905,0.08799 0.91863,0.210837 1.01117,0.325453 0.25034,0.310091 0.36889,0.70685 0.64901,0.978193 0.0809,0.07832 0.26252,-0.08379 0.33767,0 0.30445,0.33953 0.0834,1.56908 0.29764,1.991562 1.77239,3.495625 1.56446,8.156541 1.56446,12.358518 0,4.556528 0.8055,8.80792 1.46275,13.29151 0.14042,0.957871 0.29069,4.725065 0.80925,6.203207 0.21173,0.603532 0.70768,1.085003 0.89819,1.695572 0.11746,0.376454 -0.0647,0.794041 0,1.183054 0.687,4.131009 3.11035,8.058379 3.56792,12.254429 0.0808,0.741 -0.13934,1.50394 0,2.23621 0.18424,0.96831 0.68924,1.84922 0.95782,2.7976 0.0417,0.14714 0.74369,3.79463 0.79065,3.9464 0.81584,2.636644 1.86781,5.231294 2.51538,7.931584 0.42521,1.77309 1.05647,3.93512 1.23753,5.74821 0.0804,0.80566 -0.0805,1.62336 0,2.42901 0.34313,3.43376 1.68414,6.73705 2.10766,10.1331 0.16473,1.32103 0.17471,2.61887 0.39263,3.92638 0.31615,1.89692 1.34384,3.84061 2.05162,5.61004 0.73664,1.84159 1.01932,3.75899 1.57055,5.66195 0.50256,1.73492 1.20734,3.74866 1.86182,5.42904 0.25392,0.65193 0.72698,1.20927 0.9454,1.87393 0.64831,1.97277 0.68414,4.175 1.25935,6.17979 1.26316,4.4025 2.64419,8.95523 4.45312,13.16654 0.42101,0.98013 0.71561,2.46458 1.17791,3.32104 0.90084,1.66885 1.74755,3.29838 2.62635,4.99233 0.74238,1.43098 2.9074,4.74223 3.26433,6.20601 0.23338,0.95713 0.53278,1.73852 0.78527,2.74847 0.12697,0.50788 -0.15439,1.07031 0,1.57055 0.0615,0.19921 0.33477,0.28657 0.39264,0.48687 0.1823,0.63104 -0.15915,1.41243 0,2.05015 0.33763,1.35286 0.86968,3.60248 0.39173,5.03633 -0.54886,1.64658 -2.59258,2.42656 -4.11996,2.80481 -0.51059,0.12643 -1.06773,-0.12758 -1.57803,0 -1.32196,0.33049 -2.88431,0.75131 -4.31902,0.39264 -0.98877,-0.2472 -2.19017,-2.02498 -3.10933,-2.33137 -0.24832,-0.0827 -0.56801,0.14602 -0.78527,0 -0.84647,-0.56886 -1.13691,-2.40584 -1.59672,-3.18433 -0.67819,-1.1482 -0.86799,-0.33086 -1.17791,-1.57055 -0.47132,-1.88524 -1.15808,-3.68448 -1.97446,-5.51325 -1.01151,-2.26588 -1.98334,-4.49128 -2.85754,-6.8021 -0.34304,-0.90676 -0.36345,-1.90355 -0.79722,-2.78359 -0.0818,-0.16602 -0.33411,-0.21705 -0.39263,-0.39264 -0.86249,-2.58743 -0.73576,-5.63532 -1.17793,-8.28824 -0.0481,-0.28868 -0.34451,-0.49661 -0.39263,-0.78527 -0.54257,-3.25543 -0.53426,-6.60228 -1.17791,-9.82056 -0.21069,-1.05344 0.31603,-0.71022 0,-1.96318 -0.0455,-0.18028 -0.33703,-0.21637 -0.39614,-0.39264 -0.31294,-0.93332 0.19667,-2.17542 0,-3.14461 -0.29425,-1.45004 -0.49767,-2.84372 -0.79246,-4.2921 -0.20465,-1.00545 0.16952,-2.12848 0,-3.14111 -0.46981,-2.80635 -0.79704,-5.55058 -1.2707,-8.35589 -0.35853,-2.12332 -1.15858,-4.2119 -1.5777,-6.30753 -0.10272,-0.51335 0.0861,-1.05415 0,-1.57055 -0.19853,-1.19114 -0.54481,-1.76858 -0.78528,-2.83645 -0.12124,-0.53838 0.13386,-1.12022 0,-1.65561 -0.29958,-1.19836 -0.79055,-2.3426 -1.19248,-3.5411 -0.39997,-1.19265 -0.224,-2.41837 -0.78528,-3.54094 -0.0827,-0.16555 -0.3341,-0.21704 -0.39264,-0.39263 -0.31461,-0.94384 -0.083,-2.19477 -0.39264,-3.1411 -0.59907,-1.83094 -0.61443,-3.72678 -1.18011,-5.57546 -0.15071,-0.49254 0.16257,-1.13379 0,-1.62153 -0.28347,-0.85042 -0.62808,-1.59822 -0.87529,-2.45181 -0.0728,-0.25142 0.0827,-0.53694 0,-0.78527 -0.14986,-0.44957 -0.58051,-0.75773 -0.78527,-1.185094 -0.19378,-0.40444 -0.0949,-0.95146 -0.39264,-1.28681 -0.0865,-0.0974 -0.29839,0.0917 -0.39091,0 -0.17823,-0.17676 -0.16902,-0.58849 -0.34951,-0.76109 -0.13105,-0.12531 -1.02189,-0.22257 -1.15127,-0.35194 -0.0894,-0.0894 0.0891,-0.28975 0,-0.37956 -0.24524,-0.24718 -1.77774,-0.11277 -1.94286,-0.33964 -0.0653,-0.0897 0.0846,-0.26099 0,-0.33267 -0.65308,-0.55335 -2.76611,0.47592 -3.21175,0.77581 -0.0384,0.0258 -0.74447,0.77669 -0.79265,0.79265 -0.91758,0.30396 -1.29907,0.17832 -1.96099,1.17572 -0.77929,1.174244 -1.6966,2.525164 -1.98447,3.949084 -0.0782,0.38715 0.12491,0.81024 0,1.18496 -0.1931,0.57932 -0.62062,1.07658 -0.78528,1.57054 -0.12594,0.37786 0.18838,1.19301 0,1.57056 -0.24699,0.49505 -0.604,1.03818 -0.77578,1.55545 -0.12374,0.37263 0.17559,0.82673 0,1.17791 -0.69708,1.39416 -0.75342,3.04872 -1.40716,4.45948 -0.16532,0.35675 0.17669,0.95972 0,1.31022 -0.81448,1.6157 -1.50225,4.56431 -1.50225,6.62373 0,1.28323 -0.12551,3.41571 0.92284,3.99695 0.49481,0.27435 1.01957,0.20581 1.57054,0.39264 0.34416,0.1167 0.80519,0.69616 1.14671,0.78048 2.23294,0 0.2585,-0.17559 1.9632,0.39264 0.62894,0.20965 13.64444,0.19062 15.29034,-0.1494 1.68735,-0.34858 2.92746,-1.25703 4.64906,-1.66125 2.18367,-0.51271 4.7293,-0.86978 6.74755,-1.96319 0.82945,-0.44937 1.70802,-0.63089 2.53211,-1.16838 0.93489,-0.60975 2.22576,-1.9038 3.18237,-2.33972 0.96838,-0.44128 1.55249,-0.59024 2.24736,-1.2234 0.009,-0.008 1.64657,-0.79272 1.92073,-0.35489 0.2628,0.4197 1.10947,0.81748 1.54212,1.47071 0.0969,0.14644 0.69672,1.66621 0.7652,1.87672 0.0987,0.30349 0.24245,3.6293 0,3.86468 -0.0597,0.058 -2.46859,1.65293 -2.48543,1.66128 -0.60282,0.29883 -2.15478,0.42716 -2.81618,0.824 -0.31744,0.19045 -0.45322,0.62164 -0.78529,0.78527 -0.24163,0.11909 -0.54919,-0.0742 -0.80818,0 -1.25106,0.35811 -2.41,1.08421 -3.63617,1.50302 -2.72113,0.92945 -0.90432,-0.0137 -3.74228,0.39684 -0.91123,0.13182 -1.84395,1.00001 -2.74845,1.18266 -0.38643,0.078 -0.79607,-0.0772 -1.18267,0 -1.44289,0.28788 -2.91687,1.2165 -4.35414,1.57582 -0.76283,0.19071 -1.59301,0.20193 -2.35583,0.39263 -0.4578,0.11451 -0.72011,0.67083 -1.17792,0.78528 -0.38091,0.0952 -0.79322,-0.0786 -1.17791,0 -0.5781,0.1181 -1.00871,0.65276 -1.58114,0.79587 -1.78607,0.44651 -3.02622,0.95281 -4.88507,1.63866 -0.67444,0.24884 -1.62587,0.17756 -2.31499,0.39264 -0.15502,0.0484 -1.36838,0.30624 -1.58148,0.41009 -0.37604,0.18324 -0.77353,0.64656 -1.15519,0.77211 -0.25762,0.0848 -0.55572,-0.0839 -0.8136,0 -0.11174,0.0364 -3.90616,2.80985 -4.31408,3.13619 -1.09528,0.87621 -1.12959,1.52223 -1.9632,2.35583 -0.20943,0.20943 -0.61693,0.16249 -0.79318,0.40054 -0.51255,0.69231 -1.03994,2.3514 -1.57773,3.15256 -1.27118,1.8937 -2.70678,4.14829 -3.23457,6.37801 -0.26262,1.10947 -0.68184,2.71506 -1.17791,3.70723 -0.0827,0.16554 -0.3341,0.21705 -0.39265,0.39263 -0.0827,0.24825 0.0827,0.53676 0,0.78502 -0.0833,0.24991 -1.57573,2.28342 -1.57031,2.35582 0.049,0.65486 0.37549,1.25855 0.56322,1.88782 z"
         id="path1299"
         inkscape:label="A" />
      <path
         style="fill:#f5ff00;fill-opacity:1;stroke-width:0.270267"
         d="m 212.82436,71.080938 c -1.05725,-0.850069 -2.24522,-2.061647 -3.63289,-2.497417 -0.63666,-0.199928 -1.32105,-0.19997 -1.97046,-0.353441 -1.56024,-0.368719 -3.38878,-1.250767 -5.00454,-1.4895 -2.38508,-0.352408 -4.87462,-0.353039 -7.29475,-0.353039 -0.69422,0 -1.40778,-0.162701 -2.08268,0 -2.65549,0.640172 -6.33607,5.452089 -7.79338,7.545721 -0.52904,0.760032 -1.27413,1.356703 -1.78316,2.130272 -0.20703,0.314608 -0.15858,0.749945 -0.35008,1.074237 -0.59966,1.015465 -0.76728,0.292194 -1.04137,1.388465 -1.27127,5.085113 -0.31996,10.062938 0.84734,15.002794 0.11316,0.478931 -0.11937,0.998925 0,1.476355 0.12548,0.501996 0.50984,0.904981 0.69422,1.388467 1.35387,3.550113 -0.26786,-0.705024 0.34713,1.905264 0.15807,0.670939 0.77733,1.100706 1.04135,1.735584 1.23371,2.96679 2.30515,4.76611 4.29399,7.24787 3.31926,4.1419 6.83978,8.06943 9.99439,12.28962 0.30023,0.40166 0.80372,0.62668 1.08574,1.04135 0.83464,1.22715 1.75956,2.53434 2.76609,3.65158 0.31012,0.34424 0.78622,0.65264 1.0394,1.03937 0.38188,0.58337 2.30708,4.68218 2.5226,5.32872 0.14636,0.43907 -0.0908,0.93463 0,1.38846 0.16157,0.80788 0.53703,1.62983 0.70076,2.43636 0.1897,0.93449 0.27271,6.21312 0,7.28944 -0.283,1.11692 -1.14236,1.8817 -1.5732,2.8721 -0.22732,0.5225 -0.15503,1.13735 -0.34712,1.67381 -0.34907,0.97478 -1.11173,1.76203 -1.488,2.72666 -0.97336,2.49533 -0.35659,1.63904 -1.04814,3.37039 -0.74007,1.85285 0.14804,-0.54953 -1.04135,1.41449 -0.34686,0.57279 -0.3785,1.38191 -0.74719,1.955 -0.45429,0.70613 -1.23876,1.20632 -1.73558,1.87178 -0.31354,0.42 -0.41054,0.97116 -0.70067,1.40766 -0.35448,0.5333 -1.04559,0.84848 -1.38846,1.38846 -1.55306,2.44585 -3.90773,5.06309 -6.54894,6.38369 -0.32727,0.16363 -0.72024,0.17172 -1.04135,0.34712 -1.44175,0.78753 -2.97755,1.98691 -4.64743,2.35441 -0.81341,0.17901 -1.68336,0.1168 -2.48172,0.34711 -0.28226,0.0815 -0.49822,0.31944 -0.77304,0.42329 -0.38891,0.14697 -5.21069,0.22587 -5.83038,0 -1.6245,-0.59215 -5.0256,-3.3697 -5.99402,-4.78564 -0.1569,-0.22941 -0.16191,-0.55401 -0.35395,-0.75492 -0.17982,-0.18815 -0.48301,-0.2025 -0.6994,-0.3471 -0.7064,-0.47211 -1.17114,-1.35004 -1.89113,-1.81635 -0.23846,-0.15442 -0.56778,-0.15979 -0.77547,-0.35366 -0.49114,-0.45846 -0.70608,-1.01003 -1.38845,-1.38846 -0.10994,-0.0609 -1.03573,0 -1.03983,0 -2.51278,0 -4.88302,5.28342 -5.55878,7.31065 -0.24486,0.73464 0,1.9899 0,2.77693 0,0.50572 -0.2053,1.9214 0,2.42981 2.27927,5.64412 8.68789,8.37441 14.4233,9.24123 1.96607,0.29714 3.98769,-0.17688 5.90097,-0.43601 3.5605,-0.48223 7.94686,-0.88193 10.7092,-3.62252 0.29616,-0.29382 0.39842,-0.74718 0.69423,-1.04135 1.29349,-1.28622 3.22503,-1.71547 4.34663,-3.2891 3.41671,-5.69275 -0.40481,-0.0363 1.74623,-2.09987 0.67483,-0.6474 0.49832,-1.77676 1.08543,-2.48367 0.22659,-0.27278 0.59023,-0.41289 0.80611,-0.69423 0.4674,-0.60912 1.23837,-2.14546 1.73558,-2.89129 0.33913,-0.50868 1.10294,-0.83083 1.37508,-1.3751 0.26131,-0.52262 1.66216,-2.3568 2.10641,-2.80181 0.42455,-0.42524 1.01913,-0.48734 1.38847,-1.04135 0.49149,-0.73723 0.83555,-1.95142 1.38847,-2.5887 0.16955,-0.19542 0.55072,-0.13184 0.69424,-0.34711 0.12836,-0.19254 -0.10349,-0.48726 0,-0.69424 0.34581,-0.69162 0.97055,-1.09326 1.38846,-1.74863 0.52169,-0.81811 0.4771,-1.82974 1.04134,-2.67612 0.18153,-0.2723 0.59063,-0.3838 0.69424,-0.69423 0.0731,-0.21906 -0.0735,-0.47385 0,-0.69284 0.14841,-0.44322 0.91321,-1.56445 1.04372,-2.08645 0.0842,-0.33674 -0.068,-0.70096 0,-1.04135 0.19617,-0.98085 0.74437,-1.81695 1.04135,-2.7833 0.19977,-0.65003 0.54651,-2.21598 0.69423,-2.96033 0.0675,-0.34049 -0.10193,-0.70955 0,-1.04136 0.0539,-0.17523 0.36151,-0.17574 0.42656,-0.34711 0.0426,-0.11218 -0.0381,-1.31854 0,-1.47081 0.0627,-0.25101 0.28437,-0.44324 0.34713,-0.69425 0.4141,-1.65641 0,-4.50249 0,-6.24809 0,-1.51555 0.30215,-3.37421 0,-4.85963 -0.35739,-1.75687 -0.64002,-3.73359 -1.40105,-5.40968 -1.07927,-2.37692 -2.60153,-4.75776 -3.84667,-7.04989 -2.5523,-4.69841 2.28344,3.75189 -2.103,-4.05418 -0.65087,-1.15829 -1.62767,-2.08078 -2.19977,-3.28677 -0.15683,-0.33058 -0.1622,-0.72562 -0.34711,-1.04135 0.0989,-1.09019 -1.03801,-1.16753 -1.46991,-1.81537 -0.6555,-0.98325 -1.10267,-1.91713 -1.73558,-2.94031 -0.1816,-0.29357 -0.60149,-0.39211 -0.76851,-0.69422 -0.0669,-0.1211 0,-0.27674 0,-0.41511 -0.11189,-0.23575 -0.19383,-0.48821 -0.33568,-0.70725 -0.43537,-0.672312 -1.01867,-1.306703 -1.46637,-1.984086 -0.63776,-0.964901 -0.88527,-2.137356 -1.39231,-3.14955 -0.95684,-1.91023 -1.74889,-3.626274 -2.58023,-5.704618 -0.36455,-0.911385 -1.76322,-4.71507 -1.10621,-5.870109 0.21136,-0.371579 0.49157,-0.569758 0.68551,-0.930576 0.34015,-0.632895 0.35447,-1.223022 1.04142,-1.716926 1.13806,-0.818237 2.41674,-1.1047 3.55298,-1.665698 0.20411,-0.100769 0.48136,0.105858 0.68288,0 0.13531,-0.07109 0.16424,-0.289843 0.30906,-0.338736 1.69086,-0.570871 4.95757,0.676382 6.31373,1.379046 0.85445,0.442706 4.26039,-0.913593 4.68098,-1.3525 0.07,-0.07293 -0.076,-0.2366 0,-0.303028 0.33956,-0.296424 0.94111,-0.06105 1.32847,-0.32004 0.21737,-0.145336 0.16838,-0.515487 0.35327,-0.700378 0.26181,-0.261825 0.74616,-0.143161 1.05519,-0.347115 0.87683,-0.578649 0.0467,-0.08723 0.35344,-0.700545 0.66783,-1.335668 0.0183,0.274466 0.68263,-0.347117 0.0764,-0.0715 -0.0433,-0.218659 0,-0.313938 0.29087,-0.640463 0.3033,-0.01373 0.62355,-0.666584 0.0876,-0.178565 -0.12162,-0.439297 0,-0.596669 0.55782,-0.721822 0.40825,-1.06993 0.40825,-2.026768"
         id="path1303"
         inkscape:label="S-" />
    </g>
  </g>
  <g
     inkscape:groupmode="layer"
     id="layer2"
     inkscape:label="NN"
     transform="matrix(0.72306984,0,0,0.72306984,0.22630708,67.168395)">
    <g
       id="g29936"
       transform="matrix(3.1214965,0,0,3.1214965,-334.99029,-368.73514)">
      <path
         style="fill:#00bfff;fill-opacity:1;fill-rule:nonzero;stroke:#00bfff;stroke-width:0.0269999;stroke-dasharray:none;stroke-dashoffset:0;stroke-opacity:1;paint-order:normal"
         d="m 152.64182,117.3369 0.0509,59.90801 -4.99678,-10.06747 -0.16564,-13.64759 -5.11096,-9.92907 0.27133,13.60268 -5.03654,5.02968 0.009,-37.59879 5.00092,5.02194 -0.0315,6.20082 5.05214,10.21402 -0.0499,-23.83419"
         id="path30057"
         sodipodi:nodetypes="cccccccccccc"
         inkscape:label="N-left" />
      <path
         style="fill:#00bfff;fill-opacity:1;fill-rule:nonzero;stroke:#00bfff;stroke-width:0.0269999;stroke-dasharray:none;stroke-dashoffset:0;stroke-opacity:1;paint-order:normal"
         d="m 154.67534,117.32821 -0.0509,59.90801 4.99678,-10.06747 0.16564,-13.64759 5.11096,-9.92907 -0.27133,13.60268 5.03654,5.02968 -0.009,-37.59879 -5.00092,5.02194 0.0315,6.20082 -5.05214,10.21402 0.0499,-23.83419"
         id="path30057-7"
         sodipodi:nodetypes="cccccccccccc"
         inkscape:label="N-right" />
    </g>
  </g>
</svg>
