<svg xmlns="http://www.w3.org/2000/svg"
    xmlns:xlink="http://www.w3.org/1999/xlink"
    width="900px"
    height="900px"
    viewBox="0 0 90 90"
>
    <defs>
        <!-- PNGU -->
        <g id="PN" stroke-linecap="round" fill-rule="evenodd" font-size="9pt" fill="#4965e2">
            <path d="M 1.062 12.024 L 0 12.024 L 0 0 L 4.464 0 Q 6.57 0 7.668 0.864 A 2.69 2.69 0 0 1 8.563 2.189 Q 8.709 2.64 8.75 3.19 A 6.007 6.007 0 0 1 8.766 3.636 A 5.217 5.217 0 0 1 8.67 4.675 Q 8.548 5.273 8.273 5.725 A 2.549 2.549 0 0 1 7.668 6.408 Q 6.57 7.272 4.464 7.272 L 1.062 7.272 L 1.062 12.024 Z M 1.062 0.936 L 1.062 6.336 L 4.212 6.336 A 7.573 7.573 0 0 0 5.171 6.28 Q 6.161 6.153 6.777 5.742 A 1.847 1.847 0 0 0 7.497 4.783 Q 7.613 4.453 7.651 4.042 A 4.517 4.517 0 0 0 7.668 3.636 A 4.287 4.287 0 0 0 7.609 2.898 Q 7.539 2.497 7.385 2.189 A 1.742 1.742 0 0 0 6.831 1.53 Q 6.068 0.989 4.52 0.941 A 9.96 9.96 0 0 0 4.212 0.936 L 1.062 0.936 Z" id="0" vector-effect="non-scaling-stroke"/><path d="M 12.492 12.024 L 11.43 12.024 L 11.43 0 L 12.672 0 L 20.124 10.602 L 20.124 0 L 21.186 0 L 21.186 12.024 L 19.944 12.024 L 12.492 1.422 L 12.492 12.024 Z"
            id="PN" vector-effect="non-scaling-stroke"/>
        </g>
        <g id="GU" stroke-linecap="round" fill-rule="evenodd" font-size="9pt" fill="#4965e2">
            <path d="M 10.332 1.44 L 9.846 2.25 A 6.276 6.276 0 0 0 8.326 1.397 A 7.171 7.171 0 0 0 8.082 1.305 A 6.207 6.207 0 0 0 6.257 0.96 A 7.149 7.149 0 0 0 5.958 0.954 A 5.827 5.827 0 0 0 4.675 1.089 A 4.408 4.408 0 0 0 3.357 1.611 Q 2.268 2.268 1.683 3.447 A 5.521 5.521 0 0 0 1.184 5.05 A 7.319 7.319 0 0 0 1.098 6.192 A 7.113 7.113 0 0 0 1.227 7.575 A 5.416 5.416 0 0 0 1.683 8.937 Q 2.268 10.116 3.357 10.773 Q 4.446 11.43 5.958 11.43 Q 7.236 11.43 8.19 10.971 Q 9.144 10.512 9.774 9.666 L 9.774 6.84 L 5.778 6.84 L 5.778 5.886 L 10.836 5.886 L 10.836 10.026 Q 10.062 11.142 8.829 11.763 A 5.722 5.722 0 0 1 7.13 12.297 A 7.565 7.565 0 0 1 5.958 12.384 A 7.2 7.2 0 0 1 4.383 12.22 A 5.462 5.462 0 0 1 2.763 11.583 Q 1.422 10.782 0.711 9.387 A 6.489 6.489 0 0 1 0.07 7.278 A 8.243 8.243 0 0 1 0 6.192 A 7.772 7.772 0 0 1 0.189 4.444 A 6.273 6.273 0 0 1 0.711 2.997 Q 1.422 1.602 2.763 0.801 A 5.569 5.569 0 0 1 4.692 0.104 A 7.449 7.449 0 0 1 5.958 0 A 7.877 7.877 0 0 1 7.802 0.21 A 7.072 7.072 0 0 1 8.388 0.378 A 6.309 6.309 0 0 1 9.617 0.933 A 5.289 5.289 0 0 1 10.332 1.44 Z" id="0" vector-effect="non-scaling-stroke"/><path d="M 13.68 7.362 L 13.68 0.18 L 14.742 0.18 L 14.742 7.362 A 7.436 7.436 0 0 0 14.796 8.288 Q 14.857 8.771 14.986 9.173 A 3.518 3.518 0 0 0 15.201 9.702 A 2.999 2.999 0 0 0 15.864 10.58 A 2.776 2.776 0 0 0 16.515 11.016 Q 17.342 11.416 18.48 11.43 A 6.726 6.726 0 0 0 18.558 11.43 A 5.718 5.718 0 0 0 19.518 11.354 Q 20.114 11.252 20.601 11.016 Q 21.456 10.602 21.915 9.702 A 3.786 3.786 0 0 0 22.221 8.847 Q 22.374 8.195 22.374 7.362 L 22.374 0.18 L 23.436 0.18 L 23.436 7.362 A 8.088 8.088 0 0 1 23.322 8.771 Q 23.049 10.312 22.122 11.169 A 4.405 4.405 0 0 1 20.144 12.206 Q 19.465 12.373 18.665 12.383 A 8.209 8.209 0 0 1 18.558 12.384 A 8.31 8.31 0 0 1 18.523 12.384 Q 16.454 12.375 15.181 11.332 A 4.166 4.166 0 0 1 14.994 11.169 A 3.727 3.727 0 0 1 14.019 9.639 Q 13.68 8.678 13.68 7.362 Z"
            id="GU" vector-effect="non-scaling-stroke"/>
        </g>    
        <!-- slogan -->
        <g id="slogna" stroke-linecap="round" fill-rule="evenodd" font-size="9pt" fill="#ff9100">
            <path d="M 0.472 5.424 L 0 5.424 L 0 0.08 L 0.472 0.08 L 0.472 3.096 L 3.304 0.08 L 3.88 0.08 L 1.656 2.432 L 3.96 5.424 L 3.384 5.424 L 1.344 2.768 L 0.472 3.688 L 0.472 5.424 Z" id="0" vector-effect="non-scaling-stroke"/><path d="M 8.496 5.424 L 4.96 5.424 L 4.96 0.08 L 8.496 0.08 L 8.496 0.496 L 5.432 0.496 L 5.432 2.472 L 8.256 2.472 L 8.256 2.88 L 5.432 2.88 L 5.432 5.008 L 8.496 5.008 L 8.496 5.424 Z" id="1" vector-effect="non-scaling-stroke"/><path d="M 13.208 5.424 L 9.672 5.424 L 9.672 0.08 L 13.208 0.08 L 13.208 0.496 L 10.144 0.496 L 10.144 2.472 L 12.968 2.472 L 12.968 2.88 L 10.144 2.88 L 10.144 5.008 L 13.208 5.008 L 13.208 5.424 Z" id="2" vector-effect="non-scaling-stroke"/><path d="M 14.856 5.424 L 14.384 5.424 L 14.384 0.08 L 16.368 0.08 A 3.661 3.661 0 0 1 16.897 0.116 Q 17.17 0.156 17.392 0.241 A 1.531 1.531 0 0 1 17.792 0.464 A 1.196 1.196 0 0 1 18.19 1.053 Q 18.255 1.253 18.273 1.498 A 2.67 2.67 0 0 1 18.28 1.696 A 2.319 2.319 0 0 1 18.237 2.158 Q 18.183 2.424 18.061 2.624 A 1.133 1.133 0 0 1 17.792 2.928 A 1.585 1.585 0 0 1 17.301 3.184 Q 16.909 3.312 16.368 3.312 L 14.856 3.312 L 14.856 5.424 Z M 14.856 0.496 L 14.856 2.896 L 16.256 2.896 A 3.366 3.366 0 0 0 16.682 2.871 Q 16.888 2.844 17.058 2.79 A 1.339 1.339 0 0 0 17.396 2.632 A 0.821 0.821 0 0 0 17.716 2.206 Q 17.768 2.059 17.784 1.876 A 2.008 2.008 0 0 0 17.792 1.696 A 1.905 1.905 0 0 0 17.766 1.368 Q 17.735 1.19 17.666 1.053 A 0.774 0.774 0 0 0 17.42 0.76 A 1.165 1.165 0 0 0 17.115 0.61 Q 16.821 0.511 16.393 0.498 A 4.427 4.427 0 0 0 16.256 0.496 L 14.856 0.496 Z" id="3" vector-effect="non-scaling-stroke"/><path d="M 21.936 5.424 L 21.464 5.424 L 21.464 0.08 L 21.936 0.08 L 21.936 5.424 Z" id="5" vector-effect="non-scaling-stroke"/><path d="M 25.24 5.424 L 24.768 5.424 L 24.768 0.504 L 23.032 0.504 L 23.032 0.08 L 26.968 0.08 L 26.968 0.504 L 25.24 0.504 L 25.24 5.424 Z" id="6" vector-effect="non-scaling-stroke"/><path d="M 29.832 4.768 L 30.056 4.392 A 4.026 4.026 0 0 0 30.388 4.652 Q 30.556 4.77 30.718 4.853 A 2.124 2.124 0 0 0 30.864 4.92 Q 31.248 5.08 31.704 5.08 A 2.516 2.516 0 0 0 32.113 5.049 Q 32.506 4.984 32.76 4.784 A 0.964 0.964 0 0 0 33.129 4.098 A 1.394 1.394 0 0 0 33.136 3.952 A 0.958 0.958 0 0 0 33.083 3.63 A 0.844 0.844 0 0 0 32.912 3.344 A 0.959 0.959 0 0 0 32.621 3.128 Q 32.497 3.067 32.344 3.028 A 1.845 1.845 0 0 0 32.256 3.008 L 31.256 2.816 Q 30.592 2.696 30.292 2.348 Q 29.992 2 29.992 1.536 A 1.605 1.605 0 0 1 30.076 1.011 A 1.468 1.468 0 0 1 30.192 0.756 A 1.389 1.389 0 0 1 30.675 0.264 A 1.707 1.707 0 0 1 30.78 0.204 Q 31.125 0.023 31.618 0.003 A 3.081 3.081 0 0 1 31.744 0 A 2.866 2.866 0 0 1 32.514 0.102 A 2.648 2.648 0 0 1 32.664 0.148 A 2.224 2.224 0 0 1 33.342 0.527 A 2.627 2.627 0 0 1 33.464 0.632 L 33.232 1 Q 32.904 0.728 32.556 0.576 A 1.782 1.782 0 0 0 32.106 0.449 A 2.378 2.378 0 0 0 31.752 0.424 A 2.131 2.131 0 0 0 31.391 0.453 Q 31.027 0.515 30.804 0.716 A 0.965 0.965 0 0 0 30.484 1.382 A 1.333 1.333 0 0 0 30.48 1.488 A 0.917 0.917 0 0 0 30.516 1.752 A 0.722 0.722 0 0 0 30.7 2.06 Q 30.874 2.234 31.184 2.325 A 2.04 2.04 0 0 0 31.36 2.368 L 32.36 2.56 A 2.292 2.292 0 0 1 32.752 2.67 Q 33.121 2.813 33.324 3.072 A 1.399 1.399 0 0 1 33.578 3.57 A 1.334 1.334 0 0 1 33.624 3.92 Q 33.624 4.624 33.124 5.064 Q 32.624 5.504 31.704 5.504 A 3.129 3.129 0 0 1 31.148 5.457 A 2.49 2.49 0 0 1 30.708 5.336 Q 30.271 5.17 29.845 4.78 A 3.861 3.861 0 0 1 29.832 4.768 Z" id="8" vector-effect="non-scaling-stroke"/><path d="M 35.28 5.424 L 34.808 5.424 L 34.808 0.08 L 35.28 0.08 L 35.28 5.424 Z" id="9" vector-effect="non-scaling-stroke"/><path d="M 37.176 5.424 L 36.704 5.424 L 36.704 0.08 L 37.44 0.08 L 39.584 4.864 L 41.736 0.08 L 42.472 0.08 L 42.472 5.424 L 42 5.424 L 42 0.56 L 39.8 5.424 L 39.368 5.424 L 37.176 0.576 L 37.176 5.424 Z" id="10" vector-effect="non-scaling-stroke"/><path d="M 44.368 5.424 L 43.896 5.424 L 43.896 0.08 L 45.88 0.08 A 3.661 3.661 0 0 1 46.409 0.116 Q 46.682 0.156 46.904 0.241 A 1.531 1.531 0 0 1 47.304 0.464 A 1.196 1.196 0 0 1 47.702 1.053 Q 47.767 1.253 47.785 1.498 A 2.67 2.67 0 0 1 47.792 1.696 A 2.319 2.319 0 0 1 47.749 2.158 Q 47.695 2.424 47.573 2.624 A 1.133 1.133 0 0 1 47.304 2.928 A 1.585 1.585 0 0 1 46.813 3.184 Q 46.421 3.312 45.88 3.312 L 44.368 3.312 L 44.368 5.424 Z M 44.368 0.496 L 44.368 2.896 L 45.768 2.896 A 3.366 3.366 0 0 0 46.194 2.871 Q 46.4 2.844 46.57 2.79 A 1.339 1.339 0 0 0 46.908 2.632 A 0.821 0.821 0 0 0 47.228 2.206 Q 47.28 2.059 47.296 1.876 A 2.008 2.008 0 0 0 47.304 1.696 A 1.905 1.905 0 0 0 47.278 1.368 Q 47.247 1.19 47.178 1.053 A 0.774 0.774 0 0 0 46.932 0.76 A 1.165 1.165 0 0 0 46.627 0.61 Q 46.333 0.511 45.905 0.498 A 4.427 4.427 0 0 0 45.768 0.496 L 44.368 0.496 Z" id="11" vector-effect="non-scaling-stroke"/><path d="M 52.112 5.424 L 48.976 5.424 L 48.976 0.08 L 49.448 0.08 L 49.448 5 L 52.112 5 L 52.112 5.424 Z" id="12" vector-effect="non-scaling-stroke"/><path d="M 56.744 5.424 L 53.208 5.424 L 53.208 0.08 L 56.744 0.08 L 56.744 0.496 L 53.68 0.496 L 53.68 2.472 L 56.504 2.472 L 56.504 2.88 L 53.68 2.88 L 53.68 5.008 L 56.744 5.008 L 56.744 5.424 Z"
            id="slogan" vector-effect="non-scaling-stroke"/>
        </g>

        <!-- iceberg -->
        <g id="iceberg">
            <path d="M 69 10 C 70 11 71 10 72 12 C 73 13 73 10 74 13 C 74 14 76 13 77 15 C 78 17 77 13 79 16 C 79 17 80 16 80 18 C 80 19 83 18 80 20 C 62 20 59 20 56 19 C 55.6667 19 54 19 56 18 C 57 18 56 13 57 15 C 57.3333 15.3333 58 15 58 16 C 58 17 59 18 59 16 C 59 15 60 16 60 15 C 60 14 60 12 61 14 C 62 12 62 10 63 12 C 64 13 65 18 67 11 C 68 9 68 9 69 10" 
            fill="#94e0f7" />
            <path d="M 58 24 C 83 27 88 30 85 41 C 83 45 82 45 81 43 C 80 42 77 43 78 48 C 79 50 77 51 76 55 C 75 57 75 55 73 56 C 71 57 72 59 71 58 C 69 56 64 58 62 56 C 61 56 61 53 59 53 C 57 53 62 50 56 46 C 54 45 56 41 53 41 C 52 41 51 41 51 39 C 51.3333 37 50 35 51 33 C 53 31 48 31 49 29 C 49 26.3333 50 23.6667 58 24"
            fill="#1c00b8" />
        
            <path d=" M 82 21 C 83 27 90 30 85 43 C 84 45 82 46 82 45 C 81 42 78 44 76 42 C 75 41 73 40 75 39 C 78 37 75 33 70 33 C 69 33 68 33 67 32 C 65 31 62 31 62 36 C 62 38 61.3333 37.3333 61 38 C 60 40 54 38 52 37 C 50 36 49 37 50 34 C 51 30 49 32 48 29 C 48 25 54 23 54 21 C 54 19 56 18 58 18 C 62 19 65 19 68 19 C 71 19 73 18 75 19 C 76 20 76 19 77 19 C 80 19 82 18 82 21"
            fill="#0255ee" />
                <animateTransform 
                    attributeName="transform" 
                    dur="10s" 
                    type="translate" 
                    values="1 7; 0 -10; -10 0; 1 7"
                    repeatCount="indefinite"
                />
        </g>

        <!-- pingüino -->
        <g id="pinguino" stroke-width="0.4">
            <g fill="#ff9100" stroke="#ff9100">
                <!-- pico -->
                <path d="M 55 11 C 60 12 60 12 55 13" />

                <!-- peu -->
                <path d="M 51 31 L 54 31 A 1 1 0 0 1 54 33 L 51 33 A 1 1 0 0 1 51 31" />
                <path d="M 44 31 L 41 31 A 1 1 0 0 0 41 33 L 44 33 A 1 1 0 0 0 44 31" />                
            </g>
            <!-- cara -->
            <path d="M 55 17 L 55 17 A 1 1 0 0 1 45 17 L 45 11 A 1 1 0 0 1 55 11 L 55 17 M 51 10 A 1 1 0 0 0 51 12 A 1 1 0 0 0 51 10"
            fill="#fff" />
            <!-- cos -->
            <path d="M 55 17 A 1 1 0 0 1 45 17 L 40 22 L 40 25 A 1 1 0 0 0 55 25 L 55 17 L 55 15" 
            fill="#4965e2"/>

            <!-- aleta + cap -->
            <path d="M 40 10 L 40 22 A 1 1 0 0 0 45 22 L 45 11 A 1 1 0 0 1 55 11 L 55 10 A 1 1 0 0 0 40 10" 
            fill="#141414" stroke="#141414"/>

            <!-- contorno -->
            <path d="M 40 22 L 40 25 A 1 1 0 0 0 55 25 L 55 11"
            fill="none" stroke="#141414" />
        </g>
        <g id="ull">
            <circle r="1.2" fill="#141414" />
            <circle r="0.4" cx="-0.3" cy="-0.6" fill="#fff" />
            <circle r="0.25" cx="-0.8" cy="0" fill="#fff" />
        </g>
    </defs>

    <use xlink:href="#iceberg" x="-8" y="0.8" />
    <use xlink:href="#pinguino" x="-8" y="2" />
    <use xlink:href="#ull" x="43" y="13" />
    <use xlink:href="#PN" x="3.2" y="5" />
    <use xlink:href="#GU" x="1" y="20" />
    <use xlink:href="#slogna" x="3" y="40" />
</svg>
