<svg 
    xmlns="http://www.w3.org/2000/svg" 
    width="500px"
    height="500px"
    viewBox="-25 -50 100 100">

    <path d="M 0 5 l 0 -3 c 0 -2 3 -2 3 0 l 0 3 M 4 5 l 0 -4 l 2 0 a 1 1 0 0 1 0 2 a 1 1 0 0 1 0 2 l -2 0 l 0 -2 l 0 2 M 8 5 l 0 -4 l 1 0 c 2 0 2 4 0 4 l -1 0 M 12 1 l 0 2 a 1 1 0 0 0 3 0 l 0 -2 M 19 5 l -1 0 a 1 1 0 0 1 0 -4 l 1 0 M 23 5 l -1 0 a 1 1 0 0 1 0 -4 l 1 0 M 24 5 l 0 -4 l 0 4 M 28 5 a 1 1 0 0 0 0 -4 a 1 1 0 0 0 0 4 M 31 5 l 0 -4 l 2 4 l 0 -4 M 35 5 l 0 -4 l 3 0 m 0 4 l -3 0 m 0 -2 l 2 0 M 39 5 l 2 0 a 1 1 0 0 0 0 -2 l -1 0 a 1 1 0 0 1 0 -2 l 2 0"
    fill="none" stroke="#41b912" stroke-width="0.5"/>

</svg>
